<?xml version="1.0" encoding="UTF-8"?>
<svg id="Layer_1" xmlns="http://www.w3.org/2000/svg" version="1.1" viewBox="0 0 638 633">
  <!-- Generator: Adobe Illustrator 29.5.1, SVG Export Plug-In . SVG Version: 2.1.0 Build 141)  -->
  <defs>
    <style>
      .st0 {
        fill: none;
      }

      .st1 {
        fill: #1fb3c3;
      }

      .st2 {
        fill: #fff;
      }
    </style>
  </defs>
  <g id="Taxi_transfer">
    <g>
      <g>
        <path class="st2" d="M586.28,304.97c19.15-17.69,42.5-49.41,16.45-61.73-11.49-5.43-20.6-13.61-22.72-27.21-2.25-14.41-.39-30.63-17.89-33.49-11.25-1.84-24.81,2.2-34.03,9.02-27.09,20.03-35.31,64.57-20.44,94.78,12.04,24.46,38.48,44.18,64.51,29.57,3.54-1.98,8.66-5.89,14.13-10.94Z"/>
        <path d="M553.81,321.64c-3.75,0-7.55-.59-11.37-1.78-14.12-4.38-27.37-16.8-35.45-33.21-7.26-14.75-9.3-33.58-5.58-51.66,3.85-18.72,13.16-34.34,26.23-44,9.8-7.25,23.7-10.92,34.57-9.15,15.04,2.45,16.33,14.74,17.57,26.62.26,2.46.53,5.01.91,7.46,1.83,11.71,9.13,20.44,22.32,26.67,6.86,3.24,10.83,8.03,11.78,14.24,2.25,14.7-13.01,34.78-28.04,48.66-5.32,4.92-10.52,8.94-14.27,11.04-6.06,3.4-12.32,5.11-18.69,5.11ZM556.51,182.82c-9.42,0-20.08,3.46-28.01,9.32-25.95,19.18-35.4,63.06-20.22,93.89,7.91,16.06,20.84,28.2,34.59,32.47,9.92,3.08,19.65,2,28.93-3.21,3.65-2.05,8.75-6,14-10.85l.49.52-.49-.52c14.77-13.64,29.77-33.25,27.6-47.4-.87-5.7-4.57-10.13-10.98-13.16-13.65-6.45-21.22-15.53-23.12-27.74-.39-2.49-.66-5.05-.92-7.53-1.25-11.87-2.42-23.09-16.38-25.36-1.76-.29-3.6-.43-5.49-.43Z"/>
      </g>
      <g>
        <path d="M551.74,376.13c-.39,0-.71-.32-.71-.71v-113.86c0-.39.32-.71.71-.71s.71.32.71.71v113.86c0,.4-.32.71-.71.71Z"/>
        <path d="M552.3,291.95c-.13,0-.26-.04-.38-.11-.33-.21-.43-.65-.22-.99l15.41-24.45c.21-.33.65-.43.99-.22.33.21.43.65.22.99l-15.41,24.45c-.14.22-.37.33-.61.33Z"/>
        <path d="M534.88,249.69c-.25,0-.5-.13-.63-.37l-11.39-20.96c-.19-.35-.06-.78.29-.97.35-.19.78-.06.97.29l11.39,20.96c.19.35.06.78-.29.97-.11.06-.23.09-.34.09Z"/>
        <path d="M528.85,283.04c-.15,0-.31-.05-.44-.15l-11.72-9.08c-.31-.24-.37-.69-.13-1,.24-.31.69-.37,1-.13l11.72,9.08c.31.24.37.69.13,1-.14.18-.35.28-.57.28Z"/>
      </g>
    </g>
    <g>
      <path d="M334.38,471.63l75.17-1.29.54-98.99-131.83-1.86,11.54,65.29c3.82,21.61,22.71,37.23,44.57,36.85Z"/>
      <path d="M171.26,424l19.91-.34,20.76-48.89-50.22-7.05-2.26,46.52c1.01,5.72,6.02,9.86,11.8,9.76Z"/>
      <g>
        <path d="M221.63,419.71c-1.77-22.35-10.91-36.94-20.3-36.19-.12,0-20.02.19-20.07.2-9.4.75-15.58,19.47-13.81,41.82,1.77,22.35,10.82,39.85,20.22,39.11.05,0,20.23-1.66,20.28-1.67,9.5-1.45,15.44-21.05,13.68-43.26Z"/>
        <g>
          <ellipse class="st2" cx="184.46" cy="424.18" rx="17.07" ry="40.59" transform="translate(-32.86 15.86) rotate(-4.52)"/>
          <path d="M187.08,465.38c-4.63,0-9.23-3.98-13.02-11.3-3.86-7.47-6.46-17.59-7.33-28.49-1.83-23.09,4.53-41.79,14.47-42.59,4.85-.38,9.7,3.62,13.66,11.28,3.86,7.47,6.46,17.59,7.33,28.49,1.83,23.09-4.53,41.8-14.47,42.59-.21.02-.43.03-.64.03ZM181.84,384.41c-.18,0-.35,0-.53.02-8.99.72-14.89,19.13-13.15,41.05.85,10.72,3.39,20.64,7.17,27.94,3.68,7.11,8.04,10.84,12.28,10.51,8.99-.72,14.89-19.13,13.15-41.05-.85-10.72-3.4-20.64-7.17-27.94-3.52-6.82-7.68-10.53-11.75-10.53Z"/>
        </g>
        <g>
          <ellipse class="st2" cx="184.46" cy="424.18" rx="12.23" ry="29.09" transform="translate(-32.86 15.86) rotate(-4.52)"/>
          <path d="M186.34,453.91c-3.4,0-6.76-2.89-9.51-8.21-2.78-5.38-4.65-12.66-5.27-20.5-1.32-16.66,3.32-30.17,10.56-30.75,3.56-.29,7.11,2.62,9.99,8.19,2.78,5.38,4.65,12.66,5.27,20.5,1.32,16.66-3.32,30.17-10.55,30.74-.16.01-.32.02-.48.02ZM182.57,395.87c-.12,0-.23,0-.35.01-6.22.5-10.46,13.87-9.24,29.21.61,7.65,2.42,14.74,5.12,19.95,2.56,4.95,5.7,7.66,8.6,7.42,6.22-.5,10.46-13.87,9.24-29.21-.61-7.65-2.42-14.74-5.12-19.95-2.46-4.75-5.45-7.44-8.26-7.44Z"/>
        </g>
      </g>
      <g>
        <g>
          <path d="M423.91,459.93c-6-31.41-24.71-50.14-44.83-48.41-.15.01-24.48.31-24.48.31,0,0-.22.04-.33.06-18.73,3.6-29.05,31.98-23.05,63.39,5.87,30.72,25.17,52.96,43.54,50.55.41-.05,25.99-4.9,26.17-4.94,18.73-3.6,28.98-29.56,22.98-60.97Z"/>
          <path class="st2" d="M371.98,526.74c-17.98,0-35.82-21.74-41.46-51.31-6.06-31.75,4.53-60.56,23.62-64.23l.34-.06s.08-.01.12-.01c8.29-.1,24.06-.3,24.45-.31,10.07-.87,20.11,3.39,28.26,12,8.39,8.87,14.38,21.66,17.3,36.99,6.01,31.49-4.11,58.06-23.55,61.8-.25.05-25.78,4.89-26.21,4.95-.96.13-1.92.19-2.87.19ZM354.67,412.55l-.27.05c-18.31,3.52-28.4,31.59-22.49,62.56,2.81,14.71,8.82,27.98,16.92,37.37,8,9.27,17.17,13.74,25.82,12.61.62-.1,25.89-4.89,26.13-4.93,18.64-3.58,28.28-29.43,22.41-60.13-2.88-15.06-8.73-27.61-16.94-36.27-7.84-8.28-17.48-12.39-27.13-11.56-.15.01-13.37.18-24.47.31Z"/>
        </g>
        <g>
          <ellipse class="st2" cx="365.13" cy="468.77" rx="34.53" ry="57.9" transform="translate(-81.17 76.49) rotate(-10.77)"/>
          <path d="M372.04,526.73c-5.07,0-10.3-1.75-15.32-5.16-12.51-8.48-22.3-25.74-26.2-46.15-6.06-31.75,4.53-60.56,23.62-64.23,6.31-1.21,13.02.43,19.41,4.77,12.51,8.48,22.3,25.74,26.2,46.15,6.06,31.75-4.53,60.56-23.62,64.23-1.35.26-2.71.39-4.09.39ZM358.22,412.24c-1.29,0-2.56.12-3.81.36-18.31,3.52-28.4,31.58-22.49,62.56,3.77,19.75,13.58,37.08,25.6,45.24,6.07,4.12,12.41,5.69,18.34,4.55,18.31-3.52,28.4-31.58,22.49-62.56-3.77-19.75-13.58-37.08-25.6-45.24-4.78-3.24-9.74-4.91-14.52-4.91Z"/>
        </g>
        <g>
          <ellipse class="st2" cx="365.13" cy="468.77" rx="25.39" ry="42.58" transform="translate(-81.17 76.49) rotate(-10.77)"/>
          <path d="M370.21,511.58c-3.77,0-7.64-1.3-11.37-3.82-9.24-6.27-16.47-19-19.35-34.06-4.48-23.45,3.38-44.73,17.52-47.45,4.69-.9,9.68.32,14.41,3.53,9.24,6.27,16.47,19,19.35,34.06,4.48,23.45-3.38,44.73-17.52,47.45-1,.19-2.02.29-3.04.29ZM360.05,427.39c-.93,0-1.86.09-2.77.26-13.36,2.57-20.71,23.11-16.38,45.78,2.76,14.47,9.95,27.17,18.74,33.14,4.42,3,9.03,4.14,13.34,3.31,13.36-2.57,20.71-23.11,16.38-45.78-2.76-14.47-9.95-27.17-18.74-33.14-3.48-2.36-7.09-3.58-10.57-3.58Z"/>
        </g>
      </g>
      <g>
        <path d="M570.19,442.85c-6-31.41-24.71-50.14-44.83-48.41-.1,0-10.47.14-17.68.23-2.24-.32-4.48-.3-6.71.08-.05,0-.09,0-.09,0,0,0-.22.04-.34.06-.59.11-1.16.25-1.73.41-2.27.64-4.41,1.66-6.4,3.01-2.49,1.69-4.74,3.9-6.72,6.55-1.19,1.59-2.29,3.34-3.28,5.23-.66,1.26-1.28,2.58-1.85,3.96-.85,2.07-1.6,4.26-2.24,6.57-.21.77-.41,1.55-.6,2.34-.37,1.59-.69,3.22-.96,4.89-1.47,9.2-1.34,19.64.72,30.43.19.97.38,1.93.6,2.89.07.31.15.62.22.93.15.64.29,1.28.45,1.9.1.38.2.75.3,1.13.15.55.29,1.1.45,1.65.11.4.24.79.36,1.19.15.51.3,1.02.46,1.52.13.4.27.79.4,1.19.16.49.32.98.49,1.46.14.4.29.79.43,1.18.17.47.34.94.52,1.41.15.39.31.78.47,1.17.18.45.36.9.55,1.35.17.39.34.77.51,1.15.19.43.38.87.58,1.29.18.38.36.75.54,1.12.2.42.4.84.61,1.25.18.37.38.73.56,1.09.21.4.42.81.63,1.2.2.36.4.71.6,1.06.22.38.43.77.66,1.15.2.35.41.68.62,1.02.23.37.45.74.68,1.1.21.33.43.66.64.98.23.35.47.71.71,1.05.22.32.44.63.67.94.24.34.48.67.73,1,.23.31.46.6.69.9.25.32.5.64.75.95.23.29.47.57.71.86.25.3.51.61.77.9.24.27.48.54.73.81.26.29.52.57.79.85.25.26.5.51.74.76.27.27.53.53.8.79.25.24.51.48.76.71.27.25.54.5.82.74.26.23.52.44.78.66.28.23.55.46.83.68.26.21.52.41.79.61.28.21.56.42.85.62.27.19.53.37.8.55.29.19.57.38.86.56.27.17.54.34.81.5.29.17.58.34.87.5.27.15.55.3.82.44.29.15.58.29.88.43.27.13.55.26.83.38.3.13.59.25.89.37.28.11.55.22.83.32.3.11.6.21.89.3.28.09.56.18.84.26.3.09.6.16.9.23.28.07.56.13.84.19.3.06.6.11.9.16.28.05.56.09.84.13.3.04.6.07.91.09.28.02.56.05.84.06.3.01.61.02.91.02.28,0,.56,0,.84,0,.3-.01.6-.03.91-.06.28-.02.56-.04.84-.07.09-.01.18-.01.27-.02.03,0,.22-.04.51-.09.24-.04.48-.06.72-.11.18-.03.36-.09.53-.13,5.85-1.1,24.25-4.58,24.41-4.61,18.73-3.6,28.98-29.56,22.98-60.97Z"/>
        <g>
          <ellipse class="st2" cx="511.41" cy="451.69" rx="25.39" ry="42.58" transform="translate(-75.4 103.52) rotate(-10.77)"/>
          <path d="M516.49,494.5c-3.77,0-7.64-1.3-11.37-3.82-9.24-6.27-16.47-19-19.35-34.06-4.48-23.45,3.38-44.73,17.52-47.45,4.69-.9,9.68.32,14.41,3.53,9.24,6.27,16.47,19,19.35,34.06,4.48,23.45-3.38,44.73-17.52,47.45-1,.19-2.02.29-3.04.29ZM506.33,410.31c-.93,0-1.86.09-2.77.26-13.36,2.57-20.71,23.11-16.38,45.78,2.76,14.47,9.95,27.17,18.74,33.14,4.42,3,9.03,4.14,13.34,3.31,13.36-2.57,20.71-23.11,16.38-45.78-2.76-14.47-9.95-27.17-18.74-33.14-3.48-2.36-7.09-3.58-10.57-3.58Z"/>
        </g>
      </g>
      <g>
        <path class="st2" d="M613.61,461.48c-1.18-4.66,4.92-25.64-.87-45.43-.15-.53-.31-1.05-.48-1.56-4.46-14-14.03-25.81-26.56-33.42-29.53-17.92-60.59-24.66-71.32-26.58-2.5-.45-4.75-1.78-6.37-3.75-55.59-67.46-220.97-65.97-261.79-60.83-41.45,5.23-62.31,44.21-66.09,47.78-1.94,1.84-6.3,3.6-10.09,4.88-4.4,1.49-8.12,4.52-10.49,8.53-1.76,2.98-2.7,6.39-2.71,9.85l-.21,48.38c-.01,2.53.52,5.04,1.56,7.36,1.24,2.76,3.68,4.8,6.58,5.66l.28.08c-3.02-23.18,1.37-42.38,10.49-43.98,9.79-1.72,21.32,17.52,25.75,42.96.36,2.1.67,4.17.92,6.21.45,3.7,3.09,6.76,6.64,7.81l110.5,32.8c1.59.47,3.15-.82,2.99-2.48-3.21-33.63,9.02-62.17,29.59-66.12,22.77-4.38,47.13,23.02,54.43,61.2,2.16,11.32,2.58,22.31,1.5,32.3-.08.77.39,1.49,1.13,1.71,0,0,51.11,9.38,115.51,3.4,64.4-5.98,79.75-16.77,85.6-21.44,5.85-4.68,4.7-10.66,3.52-15.33Z"/>
        <g>
          <path class="st2" d="M258.23,288.86c31.07.45,56.32,21.77,79.12,59.76,4.37,7.29,11.75,12.25,20.09,13.81,33.9,6.36,122.96,25.23,154.71,53.21,2.96,2.61,3.62,7,1.55,10.37-11.79,19.24-57.95,76.28-104.72,68.84,0,0,51.11,9.38,115.51,3.4,64.4-5.98,79.75-16.77,85.6-21.44,5.85-4.68,4.7-10.66,3.52-15.33-1.18-4.66,4.92-25.64-.87-45.43-.16-.55-.33-1.1-.5-1.63-4.49-14.04-14.1-25.81-26.67-33.43-29.48-17.86-60.46-24.58-71.18-26.49-2.49-.44-4.73-1.76-6.34-3.71-46.63-56.65-170.65-64.71-233.45-62.79l-16.36.87Z"/>
          <path d="M480.89,500.94c-42.05,0-71.65-5.32-72.03-5.39-.38-.07-.64-.44-.58-.82.07-.39.43-.65.82-.58,2.77.44,5.53.65,8.27.65,21.88,0,42.52-13.13,56.64-24.9,19.34-16.13,33.67-35.4,39.09-44.25,1.89-3.09,1.3-7.07-1.42-9.47-31.35-27.62-118.4-46.3-154.37-53.04-8.65-1.62-16.15-6.78-20.57-14.15-24.08-40.11-49.03-58.98-78.52-59.41-.39,0-.7-.32-.7-.7,0-.39.29-.71.68-.73l16.36-.87c19.63-.6,70.88-.88,122.97,9.45,53.09,10.52,90.46,28.56,111.07,53.61,1.5,1.82,3.6,3.05,5.92,3.46,11.73,2.09,42.18,8.87,71.42,26.59,12.93,7.83,22.51,19.84,26.98,33.82.17.54.34,1.09.51,1.65,4,13.68,2.41,27.69,1.35,36.97-.45,3.99-.81,7.14-.47,8.49,1.33,5.25,2.25,11.25-3.77,16.06-4.76,3.81-19.25,15.4-85.98,21.6-15.46,1.44-30.21,1.98-43.67,1.98ZM422.24,496.04c19.25,2.37,57.7,5.63,102.19,1.5,66.3-6.16,80.54-17.55,85.22-21.29,5.35-4.28,4.55-9.56,3.28-14.59-.41-1.6-.05-4.7.44-9,1.04-9.16,2.62-23-1.3-36.4-.16-.55-.32-1.08-.49-1.61-4.37-13.65-13.73-25.38-26.36-33.03-29.04-17.59-59.28-24.32-70.93-26.4-2.65-.47-5.05-1.88-6.77-3.96-53.22-64.66-203.33-63.44-232.88-62.53l-6.27.33c11.59,1.91,22.46,6.88,32.99,15.06,12.77,9.92,24.76,24.37,36.63,44.15,4.21,7.02,11.36,11.93,19.61,13.48,36.09,6.77,123.44,25.52,155.05,53.38,3.24,2.85,3.95,7.6,1.69,11.28-11.26,18.38-50.07,66.21-92.08,69.65Z"/>
        </g>
        <path d="M480.89,500.94c-42.05,0-71.65-5.32-72.03-5.39-.03,0-.05-.01-.07-.02-1.07-.32-1.76-1.36-1.64-2.47,1.11-10.29.61-21.09-1.49-32.09-4.59-24.05-16.54-45.15-31.18-55.09-7.41-5.03-15.16-6.95-22.41-5.55-9.64,1.85-17.88,9.5-23.19,21.52-5.3,12.01-7.37,27.57-5.82,43.83.1,1.02-.32,2.02-1.1,2.67-.78.64-1.83.86-2.8.57l-110.5-32.8c-3.86-1.15-6.67-4.45-7.15-8.41-.25-2.04-.55-4.12-.91-6.17-3.27-18.76-10.73-35.05-18.56-40.56-2.22-1.56-4.36-2.17-6.36-1.82-8.51,1.49-12.86,20.46-9.9,43.18.03.24-.06.48-.24.64-.18.16-.44.21-.67.14l-.28-.08c-3.16-.94-5.72-3.14-7.03-6.05-1.09-2.42-1.63-5-1.62-7.65l.21-48.37c.02-3.59.99-7.12,2.81-10.22,2.45-4.16,6.32-7.29,10.88-8.84,4.92-1.67,8.32-3.3,9.83-4.73.53-.5,1.51-1.88,2.86-3.78,7.72-10.86,28.22-39.72,63.63-44.19,21.62-2.73,72.9-4.13,125.55,3.18,45.94,6.38,106.98,21.61,136.89,57.9,1.52,1.85,3.63,3.09,5.94,3.5,11.76,2.1,42.29,8.9,71.57,26.67,12.86,7.81,22.41,19.81,26.87,33.81.17.52.33,1.04.48,1.58,4,13.68,2.41,27.69,1.35,36.97-.45,3.99-.81,7.14-.47,8.49,1.33,5.25,2.25,11.25-3.77,16.06-4.76,3.81-19.25,15.4-85.98,21.6-15.46,1.44-30.21,1.98-43.67,1.98ZM409.16,494.15c1.75.31,52.5,9.21,115.27,3.38,66.3-6.16,80.54-17.55,85.22-21.29,5.35-4.28,4.55-9.56,3.28-14.59-.41-1.6-.05-4.7.44-9,1.04-9.16,2.62-23-1.3-36.4-.15-.52-.31-1.04-.47-1.54-4.36-13.67-13.68-25.39-26.25-33.02-29.08-17.65-59.39-24.4-71.08-26.49-2.64-.47-5.06-1.89-6.79-4-57.67-69.98-229.68-64.54-261.15-60.57-34.78,4.39-55.02,32.87-62.64,43.6-1.45,2.05-2.42,3.4-3.04,4-1.68,1.59-5.16,3.28-10.35,5.04-4.24,1.44-7.82,4.35-10.1,8.21-1.7,2.87-2.6,6.16-2.62,9.49l-.21,48.38c-.01,2.45.49,4.83,1.49,7.06,1.03,2.29,2.95,4.08,5.36,5-2.82-23.35,1.94-42.02,11.21-43.65,2.39-.42,4.89.27,7.43,2.06,8.25,5.8,15.77,22.08,19.15,41.48.36,2.08.67,4.18.92,6.24.41,3.4,2.82,6.23,6.14,7.21l110.5,32.8c.52.16,1.06.05,1.48-.3.43-.35.64-.87.59-1.43-1.57-16.5.54-32.32,5.94-44.54,5.51-12.47,14.11-20.4,24.23-22.35,7.63-1.47,15.75.53,23.48,5.77,15.17,10.29,27.05,31.23,31.78,56,2.13,11.14,2.64,22.07,1.51,32.51-.05.42.2.81.59.94Z"/>
      </g>
      <g>
        <path class="st2" d="M606.98,469.57c.34,1.9-.52,3.82-2.19,4.79-9.22,5.34-29.54,13-80.14,17.7-7.05.66-13.94,1.13-20.63,1.45-1.39.07-2.12-1.63-1.12-2.6l4.26-4.15c5.44-5.3,12.71-8.27,20.3-8.31,17.63-.09,51.44-1.74,73.15-12.14,2.68-1.28,5.84.33,6.37,3.26Z"/>
        <path d="M503.95,494.21c-.89,0-1.68-.52-2.03-1.34-.37-.86-.18-1.84.49-2.49l4.26-4.15c5.6-5.45,12.98-8.47,20.79-8.51,17.99-.09,51.37-1.78,72.84-12.06,1.48-.71,3.16-.69,4.62.06,1.46.75,2.47,2.1,2.76,3.72.4,2.2-.62,4.42-2.54,5.53-14.1,8.16-41.16,14.15-80.43,17.8-6.78.63-13.73,1.12-20.66,1.45-.04,0-.07,0-.11,0ZM602.55,466.57c-.56,0-1.11.12-1.64.38-21.72,10.41-55.34,12.11-73.45,12.21-7.44.04-14.47,2.92-19.8,8.11l-4.26,4.15c-.37.36-.23.78-.18.9.05.12.27.5.76.48,6.91-.33,13.84-.82,20.59-1.44,39.06-3.63,65.93-9.55,79.85-17.61,1.4-.81,2.14-2.43,1.85-4.04-.21-1.18-.94-2.16-2-2.7-.54-.28-1.13-.42-1.72-.42Z"/>
      </g>
      <g>
        <g>
          <path class="st2" d="M400.03,396.46l5.71,7.76c6.48,8.81,16.45,14.37,27.33,15.24l32.61,2.61c13.34,1.07,26.71-1.54,38.68-7.55l1.06-.53s-48.44-22.79-104.43-19.59c-1.02.06-1.57,1.24-.96,2.07Z"/>
          <path d="M471.51,423.02c-1.96,0-3.93-.08-5.89-.24l-32.61-2.61c-11.09-.89-21.24-6.55-27.85-15.53l-5.71-7.76c-.44-.6-.52-1.38-.2-2.06.31-.67.96-1.11,1.69-1.15,55.51-3.18,104.29,19.43,104.77,19.66.25.12.41.36.41.64,0,.27-.15.52-.39.65l-1.06.53c-10.32,5.18-21.68,7.86-33.17,7.86ZM411.78,394.81c-3.55,0-7.13.1-10.75.3-.3.02-.44.24-.48.33-.05.1-.13.35.06.6l5.71,7.76c6.36,8.65,16.13,14.1,26.81,14.95l32.61,2.61c13.1,1.05,26.24-1.49,38.01-7.33-7.66-3.34-46.49-19.22-91.97-19.22Z"/>
        </g>
        <g>
          <path class="st2" d="M466.64,417.85l-22.44-2.31c-10.88-.87-20.85-6.43-27.33-15.24l-3.71-5.25c38.46.35,71.62,11.75,85.18,17.13,0,0-13.3,6.15-31.71,5.67Z"/>
          <path d="M468.67,418.59c-.68,0-1.36,0-2.05-.03-.02,0-.04,0-.05,0l-22.44-2.31c-11.07-.88-21.22-6.54-27.83-15.53l-3.71-5.26c-.15-.22-.17-.51-.05-.74.12-.24.37-.38.63-.38h0c38.94.35,72.72,12.13,85.44,17.18.27.11.44.36.45.64,0,.29-.15.55-.41.67-.13.06-12.67,5.76-29.97,5.76ZM466.69,417.13c14.36.37,25.68-3.38,29.74-4.94-13.57-5.24-45.34-15.82-81.87-16.41l2.9,4.11c6.35,8.63,16.12,14.08,26.8,14.94l22.43,2.31Z"/>
        </g>
      </g>
      <g>
        <path class="st2" d="M604.23,417.66c.55-.21.84-.84.6-1.39-.88-2-4.31-4.29-10.4-4.52-52.86-2.05-68.55,6.7-72.4,9.8-.47.38-.25,1.15.35,1.21,16.88,1.82,31.04,2.07,42.6,1.53,1.17-.05,13.45-1.07,14.39-1.18,14.24-1.72,22.37-4.5,24.85-5.45Z"/>
        <path d="M553.99,425.26c-10.04,0-20.65-.6-31.68-1.79-.56-.06-1.03-.45-1.19-.99-.16-.55.02-1.13.47-1.49,4.56-3.67,20.79-11.97,72.88-9.96,6.64.26,10.09,2.83,11.02,4.95.19.44.2.92.01,1.36-.19.45-.55.81-1.01.98-2.83,1.08-10.93,3.79-25.02,5.49-1.02.12-13.3,1.14-14.44,1.19-3.59.17-7.27.25-11.03.25ZM579.36,412.16c-41.02,0-53.77,7.45-56.88,9.95,15.07,1.57,29.37,2.09,42.47,1.47,1.06-.05,13.39-1.06,14.34-1.18,14.33-1.73,22.51-4.58,24.68-5.41.09-.03.16-.11.2-.2.02-.06.04-.14,0-.24-.8-1.82-4.2-3.88-9.77-4.1-5.39-.21-10.41-.3-15.05-.3ZM604.23,417.66h0,0Z"/>
      </g>
      <g>
        <path class="st2" d="M610.81,443.77c.5-1.43-1.21-2.61-2.38-1.64-9.51,7.86-32.36,14.79-70.83,13.96-30.98-.67-70.47-4.12-91.65-6.16-1.34-.13-1.66,1.82-.35,2.13,23.61,5.58,71.13,15.66,108.7,16.21,42.05.61,53.43-15.71,56.5-24.49Z"/>
        <path d="M556.61,469c-.76,0-1.53,0-2.31-.02-37.33-.54-84.22-10.4-108.86-16.23-1.07-.25-1.5-1.22-1.36-2.05.16-.96.98-1.59,1.94-1.49,20.89,2.01,60.57,5.49,91.59,6.16,32.76.71,59.06-4.45,70.36-13.79.78-.64,1.86-.69,2.69-.11.82.57,1.16,1.6.82,2.54-3.29,9.41-14.81,24.99-54.87,24.99ZM445.83,450.63c-.25,0-.32.19-.34.31-.02.13-.01.35.28.42,24.58,5.81,71.36,15.65,108.55,16.19,41.02.6,52.59-14.79,55.82-24.01.18-.52-.18-.82-.29-.9-.24-.17-.62-.24-.96.04-5.55,4.59-23.6,15.14-71.3,14.12-31.07-.67-70.79-4.15-91.7-6.17-.02,0-.04,0-.05,0ZM610.81,443.77h0,0Z"/>
      </g>
      <g>
        <path class="st2" d="M194.35,333.97c-.58-2.22-.09-4.58,1.31-6.4,6.77-8.73,29.04-33.26,64.37-31.72,51.66,2.25,75.35,67.02,75.35,67.02,0,0-110.15-14.64-136.42-23.85-2.28-.8-4.01-2.7-4.62-5.05Z"/>
        <path d="M335.39,363.59s-.06,0-.09,0c-.21-.03-20.96-2.79-46.23-6.61-.39-.06-.66-.42-.6-.81.06-.39.42-.65.81-.6,21.8,3.29,40.23,5.8,45.01,6.44-1.58-3.93-7.45-17.65-17.79-31.4-11.2-14.89-30.09-32.89-56.49-34.04-35.35-1.54-57.75,23.68-63.78,31.45-1.26,1.63-1.71,3.79-1.19,5.78.56,2.13,2.12,3.84,4.17,4.56,10.51,3.69,36.75,8.88,75.89,15.03.39.06.66.43.59.82-.06.39-.43.65-.82.6-39.79-6.25-65.4-11.33-76.14-15.09-2.5-.88-4.4-2.95-5.08-5.54-.63-2.41-.1-5.04,1.44-7.02,6.13-7.9,28.93-33.57,64.97-32,26.97,1.17,46.2,19.49,57.59,34.64,12.3,16.37,18.34,32.69,18.4,32.85.09.24.04.5-.11.69-.14.17-.34.27-.56.27Z"/>
      </g>
      <g>
        <g>
          <path class="st2" d="M434.9,456.4c-1.52-.31-2.88.95-2.43,2.44l6.02,19.97c1.6,5.3,6.27,9.08,11.77,9.5,1.1.08,2.97.25,4.8.42,1.41.13,7.36-.05,12.29-.22,6.08-.22,11.59-3.97,13.72-9.69.65-1.73.98-3.56.71-5.39-.5-3.43-37.28-15.09-46.89-17.03Z"/>
          <path d="M456.83,489.49c-.87,0-1.48-.02-1.82-.05-1.83-.17-3.7-.33-4.79-.42-5.75-.44-10.73-4.46-12.4-10l-6.02-19.97c-.27-.91-.07-1.82.55-2.51.66-.72,1.7-1.05,2.7-.85,6.74,1.36,46.81,13.19,47.46,17.62.26,1.78,0,3.71-.75,5.74-2.22,5.94-7.85,9.92-14.37,10.15-4.96.18-8.49.27-10.55.27ZM434.44,457.07c-.4,0-.79.16-1.04.44-.16.18-.41.56-.24,1.13l6.02,19.97c1.5,4.98,5.98,8.6,11.14,8.99,1.1.08,2.97.25,4.81.42,1.08.1,5.41.02,12.2-.22,5.93-.21,11.07-3.83,13.08-9.23.67-1.8.9-3.49.67-5.03-1-2.8-34.89-14.12-46.32-16.43-.11-.02-.21-.03-.32-.03Z"/>
        </g>
        <g>
          <path class="st2" d="M434.91,456.4c-1.49-.45-2.89.94-2.43,2.44l6.02,19.97c1.6,5.3,6.27,9.08,11.77,9.5,1.1.08,2.97.25,4.8.42,2.5.23,4.52-2.02,4.03-4.5-.69-3.47-1.14-8.83-2.2-16.12-.5-3.43-2.52-6.42-5.87-7.25-4.44-1.09-10.28-2.71-16.11-4.46Z"/>
          <path d="M455.42,489.46c-.14,0-.28,0-.42-.02-1.83-.17-3.7-.33-4.79-.42-5.75-.44-10.73-4.46-12.4-10l-6.02-19.97c-.29-.95-.03-1.97.67-2.67.71-.71,1.7-.96,2.66-.67h0c5.7,1.72,11.56,3.34,16.08,4.46,3.37.83,5.83,3.83,6.41,7.84.47,3.21.81,6.02,1.12,8.5.39,3.16.7,5.66,1.08,7.58.28,1.4-.11,2.82-1.06,3.88-.86.96-2.05,1.48-3.31,1.48ZM434.34,457.03c-.32,0-.63.13-.87.36-.33.33-.45.79-.31,1.24l6.02,19.97c1.5,4.98,5.98,8.6,11.14,8.99,1.1.08,2.97.25,4.81.42.97.09,1.89-.27,2.54-1,.65-.72.91-1.69.72-2.65-.39-1.97-.7-4.49-1.1-7.68-.3-2.47-.65-5.28-1.11-8.47-.5-3.47-2.5-5.96-5.34-6.65-4.54-1.12-10.43-2.75-16.15-4.47-.12-.04-.24-.05-.36-.05Z"/>
        </g>
      </g>
      <g>
        <path class="st2" d="M320.06,353.32l-2.41-5.21c-2.2-4.76-7.26-7.51-12.43-6.75l-16.54,2.42c-2.31.34-4.23,1.95-4.97,4.17l-1.8,5.39c-.5,1.5.16,3.15,1.56,3.88l.63.33c2.72,1.42,5.68,2.3,8.73,2.57l42.25,3.84c2.06-2.6.42-6.45-2.88-6.74l-7.59-.68c-1.98-.18-3.72-1.4-4.56-3.21Z"/>
        <path d="M335.09,364.68s-.04,0-.06,0l-42.25-3.84c-3.16-.29-6.19-1.18-9-2.65l-.63-.33c-1.72-.9-2.52-2.89-1.91-4.74l1.8-5.39c.83-2.49,2.95-4.27,5.54-4.65l16.54-2.42c5.45-.79,10.87,2.15,13.18,7.16l2.41,5.21c.73,1.58,2.25,2.65,3.97,2.8l7.59.68c1.81.16,3.32,1.26,4.04,2.93.72,1.68.47,3.54-.66,4.97-.14.17-.34.27-.56.27ZM306.89,341.96c-.52,0-1.05.04-1.57.11l-16.54,2.42c-2.05.3-3.74,1.71-4.39,3.69l-1.8,5.39c-.39,1.18.12,2.45,1.21,3.02l.63.33c2.64,1.38,5.49,2.22,8.47,2.49l41.84,3.8c.61-.96.71-2.14.25-3.21-.51-1.18-1.57-1.96-2.85-2.07l-7.59-.68c-2.23-.2-4.2-1.59-5.14-3.63l-2.41-5.21c-1.83-3.96-5.84-6.46-10.11-6.46Z"/>
      </g>
      <g>
        <path class="st0" d="M297.43,295.61c-.42-.24-.25-.88.24-.87,13.25.21,92.66,2.29,141.71,22.11,27.67,11.18,43.58,23.29,55.14,34.29,1.04.99.31,2.76-1.13,2.72-12.5-.33-54.18-1.17-127.95-.07-14.24.21-21.31-6.11-35.62-27.73-11.81-17.86-27.34-27.6-32.39-30.45Z"/>
        <g>
          <path class="st2" d="M388.96,314.07c-.44-.82.19-1.8,1.11-1.67,17.94,2.53,36.85,6.47,52.04,12.59,21.6,8.7,34.03,18.13,43.05,26.71.82.78.25,2.15-.87,2.12-8.53-.22-34.51-.72-79.46-.22v-.04c-1.95-6.6-5.93-20.8-15.87-39.49Z"/>
          <path d="M484.32,354.54s-.03,0-.05,0c-9.04-.23-34.87-.71-79.43-.22-.17,0-.37-.07-.51-.2-.12-.12-.19-.27-.21-.43l-.23-.79c-1.97-6.7-6.07-20.64-15.55-38.48-.34-.64-.3-1.39.11-1.97.39-.56,1.04-.84,1.73-.75,21.3,3.01,38.86,7.26,52.21,12.63,23.11,9.31,35.27,19.24,43.28,26.85.59.56.77,1.41.46,2.16-.3.73-1,1.2-1.79,1.2ZM441.44,352.67c22.59,0,36.67.28,42.86.43.33.03.45-.22.49-.32.03-.08.12-.35-.12-.58-7.92-7.52-19.95-17.34-42.83-26.56-13.23-5.33-30.69-9.55-51.87-12.54-.19-.03-.3.07-.36.15-.04.05-.15.24-.02.48,9.56,17.97,13.68,32,15.66,38.75l.12.39c13.81-.15,25.82-.21,36.07-.21Z"/>
        </g>
        <path d="M413.3,342.36c-5.96,3.23-10.66,7.37-13.34,11.37,2.29-.02,4.54-.03,6.74-.05,2.11-2.44,5.38-5.01,9.36-7.16,8.15-4.41,16.15-5.38,17.87-2.17,1.18,2.2-.89,5.79-4.94,9.25,2.13,0,4.21,0,6.24,0,3.98-4.5,5.63-9.11,3.88-12.36-2.95-5.5-14.51-5-25.82,1.12Z"/>
        <path d="M493.44,354.57s-.04,0-.06,0c-11.17-.3-53.4-1.18-127.92-.07-14.98.23-22.17-6.81-36.23-28.05-11.83-17.88-27.6-27.65-32.15-30.22-.48-.27-.7-.81-.56-1.34.14-.53.61-.87,1.16-.87,15.14.24,93.16,2.44,141.97,22.17,29.57,11.95,45.12,24.68,55.36,34.44.69.66.9,1.66.53,2.54-.36.86-1.18,1.41-2.11,1.41ZM434.13,352.53c32.53,0,52.18.43,59.29.61.54.03.76-.4.82-.53.05-.13.2-.58-.2-.96-10.15-9.67-25.57-22.29-54.91-34.15-47.62-19.25-123.32-21.73-140.5-22.04,5.48,3.21,20.44,13.02,31.8,30.2,14.71,22.23,21.59,27.6,35.01,27.41,27.16-.41,50.04-.55,68.69-.55ZM297.79,294.98s0,0,0,0h0Z"/>
      </g>
      <path d="M242.09,363.07c-.52-.79.16-1.82,1.08-1.64l23.43,4.38c3.93,1.05,6.66,3.93,8.15,5.93.55.74-.09,1.77-.99,1.6l-23.41-4.41c-3.24-.61-6.19-2.7-8.27-5.85Z"/>
      <g>
        <g>
          <path class="st2" d="M339.27,290.38l-39.53-2.72v-10.52c0-3.58,2.9-6.48,6.48-6.48h27.69c2.96,0,5.36,2.4,5.36,5.36v14.35Z"/>
          <path d="M339.27,291.1s-.03,0-.05,0l-39.53-2.71c-.37-.03-.67-.34-.67-.71v-10.52c0-3.97,3.23-7.2,7.2-7.2h27.69c3.35,0,6.07,2.73,6.07,6.07v14.35c0,.2-.08.39-.23.52-.13.12-.31.19-.49.19ZM300.45,287l38.1,2.62v-13.59c0-2.56-2.08-4.65-4.65-4.65h-27.69c-3.18,0-5.77,2.59-5.77,5.77v9.85Z"/>
        </g>
        <g>
          <polygon points="313.59 287.22 306.93 286.71 306.89 282.17 313.53 282.17 313.59 287.22"/>
          <polygon points="323.39 287.85 316.82 287.46 316.73 282.17 323.37 282.17 323.39 287.85"/>
          <rect x="311.49" y="273.18" width="6.64" height="6.37"/>
          <rect x="321.33" y="273.18" width="6.64" height="6.37"/>
          <polygon points="333.36 288.54 326.77 288.11 326.72 282.17 333.36 282.17 333.36 288.54"/>
        </g>
      </g>
    </g>
    <g>
      <g>
        <path d="M383.88,591.06c-6.46,0-12.9-.27-19.33-.82-.39-.03-.68-.38-.65-.77.03-.39.37-.7.77-.65,27.21,2.32,54.75-.31,81.88-7.81.38-.11.77.12.88.5.11.38-.12.77-.5.88-20.88,5.77-42.01,8.67-63.05,8.67Z"/>
        <path d="M458.99,578.68c-.3,0-.58-.19-.68-.49-.12-.37.08-.78.45-.9,3.56-1.18,7.15-2.47,10.67-3.81.37-.14.78.04.92.41.14.37-.04.78-.41.92-3.54,1.36-7.15,2.65-10.73,3.84-.07.02-.15.04-.23.04Z"/>
        <path d="M383.48,576.77c-.39,0-.71-.32-.71-.71,0-.39.32-.72.71-.72,33.26-.12,65.94-8.03,97.15-23.5.36-.18.78-.03.96.32.18.35.03.78-.32.96-31.4,15.57-64.3,23.53-97.78,23.65h0Z"/>
        <path d="M351.9,595.69c-.46,0-.93-.06-1.39-.18-1.44-.37-2.65-1.28-3.4-2.55-.76-1.28-.97-2.77-.6-4.21s1.28-2.65,2.55-3.4c2.64-1.56,6.05-.68,7.62,1.95.76,1.28.97,2.77.6,4.21-.37,1.44-1.28,2.65-2.55,3.4-.87.51-1.84.78-2.82.78ZM351.89,586c-.71,0-1.44.18-2.1.57-.95.56-1.62,1.46-1.9,2.53-.27,1.07-.12,2.18.45,3.13.56.95,1.46,1.62,2.53,1.9,1.07.27,2.18.12,3.13-.45.95-.56,1.62-1.46,1.9-2.53.27-1.07.12-2.18-.45-3.13-.77-1.3-2.15-2.03-3.56-2.03Z"/>
      </g>
      <g>
        <path d="M371.56,230.46c-.39,0-.71-.32-.71-.71v-5.54c0-.39.32-.71.71-.71s.71.32.71.71v5.54c0,.4-.32.71-.71.71Z"/>
        <path d="M371.56,243.37c-.39,0-.71-.32-.71-.71v-5.54c0-.39.32-.71.71-.71s.71.32.71.71v5.54c0,.39-.32.71-.71.71Z"/>
        <path d="M367.88,234.15h-5.54c-.39,0-.71-.32-.71-.71s.32-.71.71-.71h5.54c.39,0,.71.32.71.71s-.32.71-.71.71Z"/>
        <path d="M380.79,234.15h-5.54c-.39,0-.71-.32-.71-.71s.32-.71.71-.71h5.54c.39,0,.71.32.71.71s-.32.71-.71.71Z"/>
      </g>
      <path d="M409.91,228.36c-.98,0-1.96-.18-2.9-.55-2.05-.8-3.67-2.36-4.55-4.41-1.8-4.18.07-9.08,4.17-10.92,1.97-.89,4.17-.94,6.19-.16,2.05.8,3.67,2.36,4.55,4.41,1.8,4.18-.07,9.08-4.17,10.92-1.05.47-2.17.71-3.28.71ZM409.91,213.2c-.92,0-1.83.19-2.7.58-3.39,1.52-4.94,5.58-3.44,9.05.73,1.69,2.06,2.99,3.76,3.65,1.66.64,3.46.6,5.08-.13,3.39-1.52,4.94-5.58,3.44-9.05-.73-1.69-2.06-2.99-3.76-3.65-.77-.3-1.58-.45-2.39-.45ZM406.92,213.13h0,0Z"/>
    </g>
    <g>
      <g>
        <path class="st2" d="M459.15,53.23s.05-.01.07-.01c.56-.09-11.11,1.76-11.11,1.76-5.17.82-16.75,6.02-16.11,10.04.64,4.02,13.26,5.39,18.42,4.58,0,0,10.71-1.57,10.99-1.61,2.54-.4,4.08-4.03,3.44-8.1-.64-4.03-3.18-6.98-5.7-6.65Z"/>
        <ellipse cx="460.39" cy="60.58" rx="4.51" ry="7.46" transform="translate(-3.81 72.77) rotate(-9)"/>
        <g>
          <path class="st2" d="M456.72,64.07l-8.84,1.4c-3.52.56-10.14-.4-15.16-2.68-.56.76-.83,1.51-.72,2.23.64,4.02,13.26,5.39,18.42,4.58l10.32-1.63c-1.58-.21-3.08-1.71-4.02-3.89Z"/>
          <path d="M450.36,70.32c-2.81.41-7.29.21-10.99-.5-3.45-.66-7.66-2.01-8.08-4.69-.14-.88.15-1.8.85-2.76.2-.27.56-.37.87-.23,5.07,2.3,11.48,3.16,14.76,2.63l8.84-1.4c.3-.05.64.12.77.42.84,1.96,2.16,3.29,3.46,3.46.35.05.62.35.62.7,0,.35-.25.66-.6.71l-10.32,1.63c-.06,0-.11.02-.17.03ZM432.98,63.68c-.24.45-.34.86-.28,1.22.22,1.41,2.82,2.72,6.94,3.51,3.63.7,8.03.89,10.67.47l8.06-1.27c-.8-.66-1.51-1.6-2.08-2.75l-8.31,1.31c-3.35.55-9.79-.26-15-2.49Z"/>
        </g>
        <path d="M450.36,70.32c-2.8.41-7.28.2-10.98-.51-3.45-.66-7.66-2.01-8.08-4.69-.77-4.87,12.09-10.13,16.71-10.86l10.65-1.68c.11-.02.22-.03.33-.05.01,0,.03,0,.04,0,.02,0,.08-.02.1-.02h0c2.92-.33,5.73,2.84,6.43,7.26.72,4.53-1.05,8.44-4.03,8.91-.28.04-10.56,1.55-11,1.62-.05,0-.11.02-.17.03ZM459.2,53.94c-1.33.21-10.98,1.73-10.98,1.73-5.21.82-16.04,5.93-15.52,9.22.22,1.41,2.82,2.72,6.94,3.51,3.63.7,8.02.87,10.67.47,3.71-.54,10.77-1.58,10.99-1.61,2.11-.33,3.41-3.67,2.84-7.28-.57-3.62-2.77-6.33-4.9-6.05-.02,0-.03,0-.05,0Z"/>
      </g>
      <g>
        <path class="st2" d="M456.13,79.57l-38.58-58.18-6.15,1.57s10.37,43.7,11,49.52c.63,5.82-.76,15.86-.76,15.86l34.49-8.77Z"/>
        <g>
          <path class="st2" d="M454.46,77.07l-36.92-55.67-3.49.89c4.03,9.8,16.29,39.76,17.26,44.54,1.17,5.73.72,15.86.72,15.86l22.44-5.63Z"/>
          <path d="M432.13,83.4c-.2.03-.4-.03-.55-.15-.17-.14-.27-.36-.26-.59,0-.1.43-10.11-.7-15.69-.97-4.75-13.43-35.19-17.22-44.41-.08-.19-.07-.41.02-.59.09-.18.26-.32.46-.37l3.49-.89c.29-.08.6.04.77.3l36.92,55.67c.13.19.15.44.07.65-.08.22-.27.38-.49.43l-22.44,5.63s-.05.01-.07.01ZM415.02,22.78c5.04,12.25,16.04,39.27,16.99,43.91.97,4.78.85,12.4.76,15.08l20.54-5.15-36.08-54.41-2.21.56Z"/>
        </g>
        <path d="M421.74,89.05c-.21.03-.42-.03-.58-.17-.18-.16-.26-.39-.23-.63.01-.1,1.37-10.03.75-15.68-.62-5.7-10.88-48.99-10.99-49.43-.09-.38.14-.76.52-.86l6.15-1.57c.29-.08.6.04.77.3l38.58,58.18c.13.19.15.44.07.65s-.27.38-.49.44l-34.49,8.77s-.05.01-.07.01ZM412.25,23.48c1.37,5.78,10.26,43.46,10.86,48.92.52,4.79-.29,12.24-.62,14.99l32.49-8.27-37.75-56.91-4.98,1.27Z"/>
      </g>
      <path class="st2" d="M409.95,109.57c-10.73,1.56-21.62,2.16-32.45,1.77l-45.31-1.61c-.33-.01-.61-.25-.68-.58l-1.04-5.24c-.07-.34.12-.69.45-.81l5.97-2.23-36.25-25.21c-.24-.16-.35-.45-.29-.73.06-.28.28-.5.56-.55l12.31-2.44c.13-.03.27-.01.39.03l49.22,18.64,143.16-25.14c.49-.12,13.06-3.03,22.83,4.37,1.24.5,8.62,3.61,8.73,7.12.17,5.71-6.24,9.85-20.17,13.04-12.77,2.92-69.53,12.99-102.22,18.74-1.74.31-3.48.58-5.23.84ZM332.81,108.32l44.74,1.59c12.49.44,25.07-.43,37.38-2.59,32.68-5.74,89.41-15.81,102.15-18.72,19.28-4.4,19.12-9.82,19.06-11.6-.06-2.02-4.89-4.67-7.91-5.87-.06-.02-.12-.06-.17-.1-9.25-7.06-21.63-4.19-21.76-4.16l-143.4,25.19c-.12.02-.26,0-.38-.04l-49.21-18.63-10.46,2.07,35.99,25.02c.22.15.33.41.3.68-.03.26-.21.49-.46.58l-6.68,2.49.81,4.09Z"/>
      <polygon points="339.21 100.11 348.56 76 354.14 74.74 356.05 95.88 339.21 100.11"/>
      <g>
        <path class="st2" d="M426.18,115.17s.05,0,.07,0c.57-.05-11.21.91-11.21.91-5.22.42-17.16,4.73-16.83,8.79.33,4.05,12.81,6.38,18.03,5.96,0,0,10.8-.76,11.08-.78,2.57-.21,4.37-3.71,4.04-7.81-.33-4.07-2.64-7.2-5.18-7.06Z"/>
        <ellipse cx="426.86" cy="122.6" rx="4.51" ry="7.46" transform="translate(-8.56 35.12) rotate(-4.66)"/>
        <g>
          <path class="st2" d="M422.93,125.8l-8.93.73c-3.55.29-10.09-1.17-14.92-3.82-.61.71-.94,1.44-.88,2.17.33,4.05,12.81,6.38,18.03,5.96l10.41-.85c-1.55-.33-2.95-1.94-3.71-4.18Z"/>
          <path d="M426.75,130.69s-.03,0-.05,0l-10.41.85c-4.66.38-18.4-1.7-18.8-6.61-.07-.88.28-1.79,1.05-2.69.22-.26.59-.32.89-.16,4.88,2.68,11.21,4,14.52,3.74l8.93-.73c.33-.03.63.17.73.48.69,2.02,1.91,3.44,3.18,3.71.35.07.59.39.57.75-.02.34-.28.61-.61.66ZM399.29,123.62c-.28.43-.4.83-.37,1.19.27,3.32,12,5.73,17.26,5.3l8.14-.66c-.75-.72-1.39-1.71-1.86-2.9l-8.39.68c-3.39.28-9.74-1-14.77-3.62Z"/>
        </g>
        <path d="M427.61,130.73c-.08.01-.16.02-.24.03-.29.02-10.65.75-11.09.78-4.66.38-18.39-1.7-18.79-6.61-.22-2.71,3.55-5.01,6.75-6.47,3.5-1.59,7.91-2.86,10.73-3.09,0,0,10.63-.86,11.21-.91,0,0,0,0,.01,0,0,0,0,0,0,0,.04,0,.08,0,.12,0,2.88-.01,5.38,3.33,5.74,7.72.36,4.45-1.58,8.14-4.46,8.56ZM414.13,116.9c-2.65.39-6.31,1.5-9.29,2.86-3.82,1.74-6.03,3.63-5.92,5.05.27,3.32,12,5.73,17.26,5.3,3.74-.26,10.86-.76,11.08-.78,2.14-.17,3.68-3.4,3.38-7.04-.3-3.65-2.28-6.52-4.43-6.4-.03,0-.05,0-.08,0-.1.01-.2.02-.29.03l-10.75.87c-.3.02-.62.06-.96.11Z"/>
      </g>
      <g>
        <path class="st2" d="M362.65,90.49l143.49-24.31s11.64-2.8,21.07,3.38c.9.59,9.08,4.08,9.65,7.42.55,3.2-1.9,8.27-19.62,12.32-12.95,2.96-71.6,13.36-102.19,18.73-12.38,2.18-24.96,3.05-37.53,2.6l-45.31-1.61-1.04-5.24,7.25-2.71-37.37-25.98,12.31-2.44,49.27,17.83Z"/>
        <polygon points="308.12 73.69 301.07 75.09 338.56 100.87 361.89 97.28 308.12 73.69"/>
        <g>
          <path class="st2" d="M532.11,74.67c.41,1.36-1.4,3.6-9.32,5.41-101.91,23.25-168.39,25.9-191.33,25.06l.77,3.88,45.31,1.61c12.57.45,25.14-.42,37.53-2.6,30.58-5.37,89.24-15.77,102.19-18.73,17.71-4.05,20.17-9.11,19.62-12.32-.57-3.34-8.75-6.83-9.65-7.42,0,0,4.11,2.49,4.9,5.11Z"/>
          <path d="M409.95,109.57c-10.73,1.56-21.62,2.16-32.45,1.77l-45.31-1.61c-.33-.01-.61-.25-.68-.58l-.77-3.88c-.04-.21.02-.44.16-.6.14-.17.35-.26.57-.25,7.18.26,73.57,1.78,191.15-25.05,6.68-1.52,8.29-3.2,8.67-3.85.14-.25.19-.47.13-.65-.57-1.89-3.37-3.95-4.5-4.66-.04-.02-.07-.04-.1-.06-.33-.21-.42-.65-.21-.98.21-.33.64-.43.97-.23.01,0,.04.02.08.05.17.1.54.28.93.48,4.18,2.11,8.51,4.64,8.98,7.38.64,3.74-2.33,9.06-20.16,13.14-12.77,2.92-69.53,12.99-102.22,18.74-1.74.31-3.48.58-5.23.84ZM332.81,108.32l44.74,1.59c12.49.44,25.07-.43,37.38-2.59,32.68-5.74,89.41-15.81,102.15-18.72,17.62-4.03,19.51-8.93,19.07-11.5-.23-1.34-2.08-2.81-4.04-4.05.3.45.54.93.68,1.41.12.4.17,1.03-.27,1.78-1.03,1.77-4.34,3.33-9.58,4.53-113.89,25.98-179.89,25.41-190.62,25.11l.48,2.44Z"/>
        </g>
        <path d="M521.73,67.04c-1.61-.47-3.97-1.11-5.48-1.28,2.24,1.68,3.29,3.39,2.6,4.46-1.37,2.09-9.63,3.11-9.63,3.11l1.86,4.21c7.32-1.37,13.39-3.36,13.51-5.66.11-2.12-1.15-3.56-2.86-4.84Z"/>
        <path d="M409.95,109.57c-10.73,1.56-21.62,2.16-32.45,1.77l-45.31-1.61c-.33-.01-.61-.25-.68-.58l-1.04-5.24c-.07-.34.12-.69.45-.81l5.97-2.23-36.25-25.21c-.24-.16-.35-.45-.29-.73.06-.28.28-.5.56-.55l12.31-2.44c.13-.03.26-.01.38.03l49.09,17.77,143.3-24.28c.44-.1,12-2.79,21.58,3.49.12.08.54.29.98.52,4.18,2.11,8.51,4.64,8.98,7.38.64,3.74-2.33,9.06-20.16,13.14-12.77,2.92-69.53,12.99-102.22,18.74-1.74.31-3.48.58-5.23.84ZM332.81,108.32l44.74,1.59c12.49.44,25.07-.43,37.38-2.59,32.68-5.74,89.41-15.81,102.15-18.72,17.62-4.03,19.51-8.93,19.07-11.5-.41-2.41-6.08-5.27-8.21-6.35-.56-.28-.93-.47-1.12-.6-9.05-5.93-20.4-3.31-20.52-3.28l-143.54,24.32c-.13.01-.25,0-.36-.03l-49.08-17.77-10.47,2.07,35.99,25.02c.22.15.33.41.3.68-.03.26-.21.49-.46.58l-6.68,2.49.81,4.09Z"/>
      </g>
      <polygon points="309.15 118.13 318.01 118.54 349.41 106.87 331.85 107.13 309.15 118.13"/>
      <g>
        <path class="st2" d="M455.51,96.74l-108.16,55.77-16.01,1.97s50.9-31.27,57.42-35.81c9.52-6.63,20.96-14.77,20.96-14.77l45.79-7.16Z"/>
        <g>
          <path class="st2" d="M404.55,116.58l-64.28,36.55,7.51-.83,107.74-55.56-26.21,4.14c-2,4.44-24.76,15.7-24.76,15.7Z"/>
          <path d="M347.87,153s-.02,0-.02,0l-7.51.83c-.34.04-.65-.17-.76-.49-.1-.32.03-.67.33-.84l64.28-36.55s.02-.01.04-.02c6.26-3.1,22.86-11.91,24.42-15.36.1-.22.3-.37.54-.41l26.21-4.14h0c.34-.05.67.15.78.48.11.33-.04.7-.35.86l-107.74,55.56c-.07.04-.15.06-.22.07ZM343.63,152.04l3.93-.44,103.68-53.47-21.48,3.39c-2.89,4.69-22.5,14.5-24.88,15.68l-61.25,34.83Z"/>
        </g>
        <path d="M347.45,153.22h0s-15.84,2.17-15.84,2.17c-.33.05-.65-.14-.77-.46-.12-.31,0-.66.28-.85.33-.22,33.45-22.03,57.28-36.03,8.4-4.93,20.76-14.62,20.88-14.72.1-.08.21-.13.33-.14l45.79-7.16h0c.34-.05.67.15.78.48.11.33-.04.7-.35.86l-108.16,55.77c-.07.04-.15.06-.22.07ZM334.54,153.54l12.59-1.72,104.12-53.7-41.24,6.45c-1.43,1.12-12.91,10.02-20.89,14.71-19.88,11.68-46.24,28.8-54.58,34.26Z"/>
      </g>
    </g>
    <g>
      <g>
        <g>
          <path class="st2" d="M271.95,421.34v53.43h-6.28v-51.56c0-4.02-3.24-7.28-7.24-7.28h-31.2c-4,0-7.24,3.26-7.24,7.28v51.56h-6.28v-53.43c0-6.24,5.03-11.3,11.25-11.3h35.76c6.21,0,11.25,5.06,11.25,11.3Z"/>
          <path d="M271.95,475.48h-6.28c-.39,0-.71-.32-.71-.71v-51.56c0-3.62-2.93-6.56-6.53-6.56h-31.2c-3.6,0-6.53,2.94-6.53,6.56v51.56c0,.39-.32.71-.71.71h-6.28c-.39,0-.71-.32-.71-.71v-53.42c0-6.62,5.37-12.01,11.96-12.01h35.76c6.59,0,11.96,5.39,11.96,12.01v53.42c0,.39-.32.71-.71.71ZM266.38,474.05h4.85v-52.71c0-5.84-4.72-10.58-10.53-10.58h-35.76c-5.81,0-10.53,4.75-10.53,10.58v52.71h4.85v-50.84c0-4.41,3.57-7.99,7.96-7.99h31.2c4.39,0,7.96,3.58,7.96,7.99v50.84Z"/>
        </g>
        <rect x="227.55" y="408.42" width="30.36" height="8.96" rx="1.84" ry="1.84" transform="translate(485.46 825.79) rotate(180)"/>
      </g>
      <g>
        <ellipse cx="223.35" cy="604.75" rx="7.07" ry="7.1"/>
        <ellipse cx="267.08" cy="604.75" rx="7.07" ry="7.1"/>
      </g>
      <g>
        <g>
          <rect class="st2" x="198.2" y="470" width="87.26" height="133.23" rx="13.7" ry="13.7" transform="translate(483.66 1073.23) rotate(180)"/>
          <path d="M271.76,603.95h-59.86c-7.95,0-14.41-6.46-14.41-14.41v-105.84c0-7.95,6.46-14.41,14.41-14.41h59.86c7.95,0,14.41,6.46,14.41,14.41v105.84c0,7.95-6.46,14.41-14.41,14.41ZM211.9,470.71c-7.16,0-12.98,5.82-12.98,12.98v105.84c0,7.16,5.82,12.98,12.98,12.98h59.86c7.16,0,12.98-5.82,12.98-12.98v-105.84c0-7.16-5.82-12.98-12.98-12.98h-59.86Z"/>
        </g>
        <g>
          <g>
            <rect class="st2" x="218.31" y="470.18" width="87.26" height="133.23" rx="13.7" ry="13.7" transform="translate(523.88 1073.6) rotate(180)"/>
            <path d="M291.87,604.13h-59.86c-7.95,0-14.41-6.46-14.41-14.41v-105.84c0-7.95,6.46-14.41,14.41-14.41h59.86c7.95,0,14.41,6.46,14.41,14.41v105.84c0,7.95-6.46,14.41-14.41,14.41ZM232.01,470.9c-7.16,0-12.98,5.82-12.98,12.98v105.84c0,7.16,5.82,12.98,12.98,12.98h59.86c7.16,0,12.98-5.82,12.98-12.98v-105.84c0-7.16-5.82-12.98-12.98-12.98h-59.86Z"/>
          </g>
          <g>
            <g>
              <rect class="st2" x="284.4" y="484.19" width="7.05" height="105.21" rx="3.21" ry="3.21" transform="translate(575.85 1073.6) rotate(180)"/>
              <path d="M288.23,590.12h-.62c-2.17,0-3.93-1.76-3.93-3.93v-98.79c0-2.17,1.76-3.93,3.93-3.93h.62c2.17,0,3.93,1.76,3.93,3.93v98.79c0,2.17-1.76,3.93-3.93,3.93ZM287.61,484.91c-1.38,0-2.5,1.12-2.5,2.5v98.79c0,1.38,1.12,2.5,2.5,2.5h.62c1.38,0,2.5-1.12,2.5-2.5v-98.79c0-1.38-1.12-2.5-2.5-2.5h-.62Z"/>
            </g>
            <g>
              <rect class="st2" x="267.08" y="484.19" width="7.05" height="105.21" rx="3.21" ry="3.21" transform="translate(541.2 1073.6) rotate(180)"/>
              <path d="M270.91,590.12h-.62c-2.17,0-3.93-1.76-3.93-3.93v-98.79c0-2.17,1.76-3.93,3.93-3.93h.62c2.17,0,3.93,1.76,3.93,3.93v98.79c0,2.17-1.76,3.93-3.93,3.93ZM270.29,484.91c-1.38,0-2.5,1.12-2.5,2.5v98.79c0,1.38,1.12,2.5,2.5,2.5h.62c1.38,0,2.5-1.12,2.5-2.5v-98.79c0-1.38-1.12-2.5-2.5-2.5h-.62Z"/>
            </g>
            <g>
              <rect class="st2" x="249.75" y="484.19" width="7.05" height="105.21" rx="3.21" ry="3.21" transform="translate(506.55 1073.6) rotate(180)"/>
              <path d="M253.59,590.12h-.62c-2.17,0-3.93-1.76-3.93-3.93v-98.79c0-2.17,1.76-3.93,3.93-3.93h.62c2.17,0,3.93,1.76,3.93,3.93v98.79c0,2.17-1.76,3.93-3.93,3.93ZM252.97,484.91c-1.38,0-2.5,1.12-2.5,2.5v98.79c0,1.38,1.12,2.5,2.5,2.5h.62c1.38,0,2.5-1.12,2.5-2.5v-98.79c0-1.38-1.12-2.5-2.5-2.5h-.62Z"/>
            </g>
            <g>
              <rect class="st2" x="232.43" y="484.19" width="7.05" height="105.21" rx="3.21" ry="3.21" transform="translate(471.91 1073.6) rotate(180)"/>
              <path d="M236.26,590.12h-.62c-2.17,0-3.93-1.76-3.93-3.93v-98.79c0-2.17,1.76-3.93,3.93-3.93h.62c2.17,0,3.93,1.76,3.93,3.93v98.79c0,2.17-1.76,3.93-3.93,3.93ZM235.64,484.91c-1.38,0-2.5,1.12-2.5,2.5v98.79c0,1.38,1.12,2.5,2.5,2.5h.62c1.38,0,2.5-1.12,2.5-2.5v-98.79c0-1.38-1.12-2.5-2.5-2.5h-.62Z"/>
            </g>
          </g>
        </g>
      </g>
    </g>
    <g>
      <g>
        <g>
          <g>
            <path class="st2" d="M124.65,561.63l5.5,20.96c1.1,4.19,1.39,8.55.86,12.85l-1.1,8.86,27.79-4.56-3.59-2.66c-6.24-4.62-10.64-11.3-12.43-18.87l-4.78-20.22-12.24,3.64Z"/>
            <path d="M129.91,605.01c-.18,0-.36-.07-.5-.2-.16-.16-.24-.38-.21-.6l1.1-8.86c.53-4.23.24-8.46-.84-12.58l-5.5-20.96c-.1-.37.12-.76.49-.87l12.24-3.64c.19-.06.39-.03.56.07s.29.26.34.45l4.78,20.22c1.75,7.4,6.07,13.95,12.16,18.46l3.59,2.66c.23.17.34.46.27.74-.07.28-.3.49-.58.54l-27.79,4.56s-.08,0-.12,0ZM125.52,562.11l5.33,20.29c1.13,4.3,1.42,8.71.87,13.12l-.98,7.91,25.18-4.13-2.23-1.65c-6.36-4.71-10.87-11.56-12.7-19.28l-4.61-19.49-10.86,3.23Z"/>
          </g>
          <g>
            <g>
              <path class="st2" d="M127.2,608.63c-.21-3.7-.26-11.07,2.14-15.69.43-.82,1.41-1.18,2.27-.83l6.36,2.56c.99.4,2.06-.33,2.06-1.4v-.44c0-.62.48-1.13,1.1-1.16l5.48-.29c2.04-.11,4.08.28,5.95,1.12,5.67,2.55,17.7,8.58,20.57,14.88.65,1.43-.41,3.07-1.97,3.14-4.97.22-17.53.62-41.56.41-1.28-.01-2.33-1.02-2.4-2.3Z"/>
              <path d="M142.51,611.7c-3.88,0-8.17-.02-12.91-.06-1.65-.01-3.01-1.32-3.11-2.97-.22-3.97-.23-11.34,2.22-16.06.6-1.15,1.96-1.65,3.17-1.17l6.36,2.56c.25.1.51.07.73-.08.22-.15.35-.39.35-.66v-.44c0-1,.78-1.82,1.78-1.88l5.48-.29c2.14-.11,4.31.3,6.28,1.18,6.57,2.96,18.03,8.88,20.93,15.23.4.87.33,1.89-.17,2.72-.52.85-1.43,1.39-2.42,1.43-4.29.19-13.17.47-28.68.47ZM127.92,608.59c.05.9.79,1.62,1.69,1.62,23.66.2,36.17-.17,41.52-.41.52-.02.99-.3,1.26-.75.26-.43.3-.93.09-1.38-2.81-6.15-15.07-12.21-20.22-14.52-1.76-.79-3.7-1.16-5.62-1.06l-5.48.29c-.24.01-.42.21-.42.45v.44c0,.74-.37,1.43-.98,1.84-.61.41-1.38.49-2.06.22l-6.36-2.56c-.52-.21-1.11,0-1.37.5-2.3,4.42-2.28,11.5-2.06,15.32Z"/>
            </g>
            <path d="M149.54,607.45c-4.99,0-11.11-.12-18.4-.45-.39-.02-.7-.35-.68-.75.02-.39.36-.69.75-.68,24,1.1,35.18-.16,35.29-.17.39-.04.75.24.79.63.05.39-.23.75-.63.79-.08,0-5.59.63-17.12.63Z"/>
            <path d="M155.79,601.51c-.14,0-.27-.04-.39-.12l-9.46-6.23c-.33-.22-.42-.66-.2-.99.22-.33.66-.42.99-.2l9.46,6.23c.33.22.42.66.2.99-.14.21-.36.32-.6.32Z"/>
          </g>
        </g>
        <g>
          <g>
            <polygon class="st2" points="68.33 565.17 64.97 588.87 56.46 588.87 57.29 565.56 68.33 565.17"/>
            <path d="M64.97,589.59h-8.51c-.19,0-.38-.08-.51-.22-.13-.14-.21-.33-.2-.52l.83-23.31c.01-.37.31-.68.69-.69l11.04-.39c.21-.03.41.08.56.24.14.16.21.37.18.58l-3.36,23.7c-.05.35-.35.61-.71.61ZM57.2,588.16h7.15l3.15-22.24-9.52.34-.78,21.91Z"/>
          </g>
          <g>
            <g>
              <path class="st2" d="M64.64,610.93c-3.48.37-8.36,1.27-15.81.07-2.18-.35-3.55-2.55-2.96-4.69,1.58-5.63,4.87-16.02,9.05-21.46.3-.39.92-.29,1.08.18l.15.98c.09.59.88.7,1.13.17l.92-1.96c.22-.36.59-.6,1.01-.64l3.23-.12c.68-.06,1.3.41,1.42,1.09l.11,1.54c.04.6.84.77,1.12.24l1.39-1.44c.28-.38.89-.18.88.3l-.17,6.16c-.12,4.45.2,8.9.96,13.29l.38,2.21c.2,2.03-1.88,3.86-3.9,4.08Z"/>
              <path d="M56.16,612.32c-2.16,0-4.62-.16-7.45-.61-1.23-.2-2.32-.91-2.99-1.97-.69-1.07-.88-2.39-.54-3.62,1.61-5.73,4.93-16.18,9.17-21.71.3-.39.78-.58,1.27-.5.49.08.89.42,1.05.89.01.04.02.08.03.12l.09.6.76-1.61c.36-.62.95-.99,1.59-1.05l3.27-.13c1.01-.09,1.97.64,2.15,1.68,0,.02,0,.05,0,.07l.09,1.26,1.28-1.32c.32-.39.84-.54,1.32-.38.5.17.83.64.81,1.17l-.17,6.16c-.12,4.39.2,8.82.95,13.15l.38,2.21c.25,2.53-2.19,4.66-4.53,4.91-.44.05-.9.1-1.39.16-1.94.23-4.28.52-7.17.52ZM55.34,585.47c-4.03,5.39-7.23,15.47-8.79,21.03-.23.84-.1,1.73.37,2.46.46.72,1.18,1.19,2.01,1.33,6.41,1.03,10.92.49,14.22.09.49-.06.96-.12,1.41-.16,1.64-.18,3.43-1.65,3.27-3.3l-.37-2.15c-.76-4.42-1.09-8.94-.97-13.43l.15-5.57-.97,1c-.3.45-.83.68-1.37.56-.58-.12-.99-.6-1.03-1.19l-.11-1.5c-.07-.3-.35-.51-.65-.47l-3.27.13c-.15.02-.32.12-.42.29l-.89,1.89c-.25.53-.8.83-1.38.74-.58-.08-1.02-.53-1.11-1.1l-.1-.65Z"/>
            </g>
            <path d="M57.39,607.91c-2.13,0-4.68-.25-7.53-1-.38-.1-.61-.49-.51-.87.1-.38.49-.61.87-.51,7.95,2.1,13.52.04,13.58.02.37-.14.78.04.92.41.14.37-.04.78-.41.92-.16.06-2.75,1.03-6.93,1.03Z"/>
            <path d="M61.24,599.25h-7.8c-.39,0-.71-.32-.71-.71s.32-.71.71-.71h7.8c.39,0,.71.32.71.71s-.32.71-.71.71Z"/>
          </g>
        </g>
        <g>
          <path d="M123.26,409.2s11.15,72.38,11.6,89.66c.44,17.28,7.6,69.59,7.6,69.59,0,0-9.2,3.43-19.69,1.03,0,0-34.16-92.62-36.62-121.01-2.46-28.39,7-41.39,7-41.39l30.11,2.13Z"/>
          <path d="M112.35,404.7s-37.81,115.98-38.42,163.13c0,0-8.33,1.97-20.31,0,0,0-7.68-129.44,14.46-165.71l44.28,2.57Z"/>
          <path d="M130.57,571.06c-2.46,0-5.16-.24-7.96-.88-.24-.05-.43-.22-.51-.45-.2-.55-20-54.34-30.41-92.12-11.07,41.7-16.8,72.05-17.04,90.23,0,.33-.23.61-.55.69-.35.08-8.61,1.98-20.59,0-.33-.05-.58-.33-.6-.66-.06-1.06-6.08-106.01,8.81-152.84.12-.38.52-.59.9-.46.38.12.58.52.46.9-14.24,44.79-9.24,143.3-8.78,151.75,9.71,1.51,16.94.4,18.92.03.36-18.78,6.36-50.02,17.84-92.87.1-.37.48-.6.85-.51.38.09.61.46.54.84l-.04.18c9.77,36.19,29.08,89.07,30.88,93.99,8.6,1.85,16.31-.26,18.37-.91-.79-5.81-7.11-52.94-7.53-69.08-.29-11.35-5.33-47.24-8.31-67.62-.06-.39.21-.75.6-.81.39-.06.75.21.81.6,3.64,24.94,8.04,56.94,8.32,67.79.44,17.05,7.52,68.98,7.59,69.51.05.33-.15.65-.46.77-.28.11-5.3,1.94-12.14,1.94Z"/>
          <path class="st2" d="M91.68,475.62c-.06,0-.12,0-.17-.02-.38-.1-.62-.48-.52-.87l5.31-21.18c.1-.38.49-.61.87-.52.38.1.62.48.52.87l-5.31,21.18c-.08.32-.37.54-.69.54Z"/>
        </g>
      </g>
      <g>
        <path d="M101.59,305.39c-2.38,13.74-16.27,28.49-30.23,26.54-2.28-.32-8.43-1.62-14.89-9.14-8.91,6.4-20.26,4.71-26.39-2.72-7.48-9.08-6.46-25.89,4.44-34.52-8.63-.07-10.96-3.41-11.64-4.72-4.04-7.75,6.63-25.87,16.6-25.9,3.68-.01,8.56,4.56,18.17,13.69,9.92,9.43,10.35,11.26,13.35,11.59,8.83.96,11.47-14.16,23.18-15.83,8.02-1.14,16.98,4.48,17.65,9.8.58,4.56-5.28,6.17-8.58,15.28-2.46,6.79-.56,9.62-1.65,15.93Z"/>
        <path d="M89.98,259.25c.68,2.1,0,8.06-3.14,9.09-3.15,1.03-7.57-3.25-8.25-5.35-.68-2.1,1.31-4.64,4.46-5.67,3.15-1.03,6.25-.16,6.93,1.94Z"/>
      </g>
      <g>
        <g>
          <path class="st2" d="M127.94,410.1s3.5,23.5-.78,28c0,0-14-15.41-14.67-26.54l15.45-1.46Z"/>
          <path d="M127.16,438.81h0c-.2,0-.39-.09-.52-.23-.58-.64-14.18-15.72-14.85-26.98-.02-.38.26-.72.65-.75l15.45-1.46c.38-.05.72.23.77.61.36,2.44,3.43,23.97-.97,28.6-.14.14-.32.22-.52.22ZM113.27,412.21c1.02,9.4,11.28,21.79,13.85,24.76,2.57-4.45,1.14-19.55.22-26.09l-14.07,1.33Z"/>
        </g>
        <g>
          <path class="st2" d="M108.52,410.34s-4.36,18.96-9.54,23.68c-5.17,4.73-19.45-15.3-27.17-16.86-9.42-1.91-17.6,16.86-17.6,16.86,0,0,3.27-22.06,9.75-27.1l44.56,3.42Z"/>
          <path d="M97.08,435.47c-3.48,0-8.31-4.36-13.35-8.92-4.39-3.96-8.92-8.06-12.06-8.69-8.75-1.77-16.72,16.26-16.8,16.45-.14.33-.51.5-.85.4-.34-.1-.56-.44-.51-.79.14-.91,3.39-22.4,10.01-27.56.14-.11.32-.16.49-.15l44.56,3.42c.21.02.4.12.52.29.12.17.17.38.12.58-.18.78-4.47,19.23-9.75,24.05-.69.64-1.5.92-2.38.92ZM70.45,416.31c.5,0,1,.05,1.5.15,3.52.71,8,4.76,12.73,9.03,5.32,4.81,11.35,10.25,13.81,8,4.36-3.98,8.23-18.86,9.13-22.51l-43.44-3.34c-4.24,3.6-7.08,15.08-8.4,21.68,2.91-5.17,8.36-13.03,14.67-13.03Z"/>
        </g>
        <g>
          <path class="st2" d="M178.52,297.09l7.2-7.54c1.22-1.28,3.28.16,2.51,1.76l-2.22,4.6s1.51.71,2.26.75c1.64.11,3.23-.6,4.37-1.8,1.31-1.38,3.44-3.58,4.16-4.12,1.07-.8,2.45-2.04,3.97-2.17h.05c1.6-.12,2.64,1.64,1.77,2.99l-3.01,4.67c-2.18,3.39-5.39,5.99-9.15,7.43l-6.17,2.35c-2.15.82-3.59,2.86-3.65,5.17l-.62,24.05-12.64-9.7,5.67-18.43c1.13-3.68,3-7.09,5.5-10.02Z"/>
          <path d="M179.98,335.96c-.15,0-.31-.05-.44-.15l-12.64-9.7c-.24-.18-.34-.49-.25-.78l5.67-18.43c1.17-3.8,3.06-7.25,5.63-10.28,0-.01.02-.02.03-.03l7.2-7.54c.79-.82,1.99-.94,2.92-.3.94.65,1.25,1.83.75,2.86l-1.89,3.92c.51.2,1.05.38,1.34.4,1.38.09,2.76-.49,3.8-1.58,1.53-1.61,3.52-3.65,4.25-4.2.15-.11.3-.23.46-.35,1.05-.82,2.36-1.84,3.89-1.96,1.06-.07,2.01.42,2.52,1.29.52.88.5,1.95-.05,2.81l-3.01,4.68c-2.28,3.55-5.57,6.21-9.49,7.71l-6.17,2.35c-1.89.72-3.14,2.49-3.19,4.52l-.62,24.05c0,.27-.16.51-.41.63-.1.05-.2.07-.31.07ZM168.18,325.28l11.13,8.54.59-22.65c.07-2.61,1.68-4.9,4.11-5.82l6.17-2.35c3.64-1.39,6.69-3.86,8.8-7.15l3.01-4.68c.26-.4.27-.89.02-1.3-.24-.41-.67-.63-1.14-.6-1.14.09-2.22.93-3.17,1.67-.16.13-.32.25-.47.36-.5.38-1.99,1.85-4.07,4.04-1.33,1.4-3.13,2.13-4.93,2.02-.84-.05-2.24-.69-2.52-.82-.17-.08-.31-.23-.37-.41-.06-.18-.05-.38.03-.55l2.22-4.6c.23-.48,0-.86-.28-1.06-.28-.2-.71-.27-1.07.11l-7.18,7.52c-2.44,2.87-4.23,6.15-5.34,9.75l-5.53,17.96Z"/>
        </g>
        <g>
          <polygon class="st2" points="164.78 319.66 196.3 344.75 182.25 359.39 155.51 337.01 164.78 319.66"/>
          <path d="M182.25,360.1c-.16,0-.32-.06-.46-.17l-26.74-22.38c-.26-.22-.33-.59-.17-.88l9.27-17.35c.1-.19.28-.32.49-.36.21-.04.42,0,.59.14l31.52,25.09c.16.12.25.31.27.51.01.2-.06.4-.2.54l-14.05,14.63c-.14.15-.33.22-.52.22ZM156.42,336.84l25.78,21.58,13.04-13.59-30.23-24.07-8.59,16.08Z"/>
        </g>
        <g>
          <path class="st1" d="M193.01,355.98l-36.2-28.06s-3.96,6.05-10.45,6.71c-5.52.56-14.93-10.91-22.36-15.88-9.57-6.32-20.9-8.62-31.93-7.68,0,0-.05,0-.15.01-1.98.17-4.07.47-6.26.92-15.23,2.56-52.85,11.03-59.98,33.01-4.81,14.83.81,34.7,1.75,37.81.07.22.31.33.52.23l33.44-16.22-2.58-7.8c-1.55-3.75-.01-8.07,3.55-9.99l5.18-2.79c1.19,6.56,2.18,13.46,1.06,19.31-4.11,21.64-8.82,28.72-11.18,46.47,0,0,8.15-1.92,14.06-1.54l55.74,2.14c3.72.14,6.95-2.61,7.36-6.32.58-5.2.6-14.41-1.54-30.57-.28-2.1-.45-5.43-.66-9.5,11.39,6.89,32.19,12.24,60.61-10.25Z"/>
          <path d="M127.5,413.34c-.1,0-.2,0-.3,0l-55.74-2.14c-5.75-.37-13.79,1.5-13.87,1.52-.23.05-.47,0-.64-.17-.17-.16-.26-.39-.23-.62,1.25-9.44,3.13-15.74,5.3-23.04,1.85-6.24,3.96-13.3,5.89-23.47,1.02-5.4.21-11.84-.89-18.08l-4.32,2.32c-3.26,1.75-4.65,5.66-3.23,9.09l2.6,7.85c.11.34-.04.71-.37.87l-33.44,16.22c-.29.14-.62.15-.91.02-.29-.13-.51-.38-.6-.68-1.14-3.77-6.57-23.35-1.75-38.23,7.22-22.25,44.74-30.84,60.54-33.49,2.1-.43,4.24-.74,6.32-.92l.14-.02s.06,0,.09,0c11.9-1,23.08,1.7,32.32,7.8,2.69,1.8,5.65,4.45,8.51,7.01,4.99,4.47,10.14,9.1,13.38,8.76,6.08-.61,9.89-6.33,9.93-6.39.11-.17.28-.28.48-.31.2-.03.4.02.56.14l36.2,28.06c.17.13.28.34.28.56,0,.22-.1.43-.27.56-27.25,21.56-47.66,18.11-60.28,10.97.18,3.6.35,6.32.58,8.12,1.79,13.55,2.31,23.89,1.55,30.74-.44,3.96-3.84,6.96-7.8,6.96ZM69.81,409.71c.59,0,1.16.02,1.72.05l55.72,2.14c3.35.12,6.25-2.37,6.63-5.69.52-4.63.67-13.66-1.54-30.4-.28-2.08-.45-5.27-.66-9.56-.01-.26.12-.51.35-.65.23-.14.51-.14.74,0,12.02,7.27,31.99,11.44,59.08-9.63l-34.89-27.04c-1.24,1.62-4.97,5.84-10.53,6.4-3.86.39-9.02-4.23-14.48-9.11-2.82-2.53-5.75-5.14-8.35-6.89-8.98-5.94-19.86-8.55-31.47-7.56-.02,0-.03,0-.05,0h-.09c-2.04.19-4.12.5-6.2.92-15.56,2.62-52.46,11.02-59.44,32.53-4.55,14.03.32,32.5,1.64,36.99l32.51-15.77-2.38-7.21c-1.68-4.06-.01-8.74,3.89-10.84l5.18-2.79c.2-.11.44-.11.65-.01.21.1.35.29.39.52,1.22,6.68,2.18,13.67,1.06,19.57-1.94,10.24-4.06,17.34-5.92,23.61-2.07,6.97-3.88,13.03-5.11,21.81,2.11-.44,7.11-1.39,11.54-1.39Z"/>
        </g>
        <g>
          <path class="st2" d="M58.97,376.7l10.04,15.7,4.5-3.06c2.75-1.87,6.12-2.59,9.39-2,0,0,4.84.65,6.9,2.32,4.98,4.04.57,6.55-.39,7.06-1.54.82-3.67,1.58-5.94,1.25-1.33-.19-4.82.26-7.98,1.99-2.39,1.3-5.18,3.96-8.97,2.93-3.24-.88-4.66-2.8-4.66-2.8l-12.97-16.25,10.07-7.12Z"/>
          <path d="M68.24,403.83c-.61,0-1.24-.08-1.9-.26-3.44-.94-4.99-2.98-5.05-3.07l-12.96-16.23c-.12-.15-.18-.35-.15-.55s.13-.37.29-.48l10.07-7.12c.16-.11.36-.16.55-.12.19.04.36.15.46.32l9.64,15.08,3.89-2.65c2.92-1.99,6.45-2.74,9.92-2.12.17.02,5.03.69,7.22,2.47,1.85,1.5,2.72,3.02,2.58,4.51-.14,1.42-1.23,2.75-3.08,3.73-1.51.8-3.85,1.68-6.37,1.33-1.11-.16-4.47.23-7.53,1.91-.46.25-.95.56-1.46.89-1.68,1.07-3.69,2.36-6.14,2.36ZM49.92,383.97l12.5,15.66s1.36,1.76,4.29,2.56c2.72.74,4.93-.68,6.89-1.93.54-.34,1.04-.67,1.55-.94,3.28-1.79,6.9-2.28,8.42-2.07,2.14.31,4.17-.47,5.5-1.17.82-.43,2.21-1.35,2.33-2.61.1-.98-.6-2.08-2.05-3.26-1.88-1.53-6.5-2.16-6.54-2.16-3.14-.56-6.29.11-8.9,1.88l-4.5,3.06c-.16.11-.36.15-.55.11-.19-.04-.35-.15-.46-.31l-9.64-15.07-8.84,6.25Z"/>
        </g>
        <g>
          <path class="st2" d="M58.81,368.18l4.14,7.67-24.44,19.59s-4.45-8.6-5.82-14.64l26.13-12.62Z"/>
          <path d="M38.5,396.14s-.1,0-.15-.02c-.21-.04-.39-.18-.49-.37-.18-.35-4.51-8.75-5.88-14.81-.07-.32.09-.66.39-.8l26.13-12.62c.34-.17.76-.03.94.3l4.14,7.67c.16.3.09.68-.18.9l-24.44,19.59c-.13.1-.29.16-.45.16ZM33.51,381.18c1.2,4.78,4.16,10.98,5.23,13.14l23.29-18.66-3.53-6.54-24.99,12.07Z"/>
        </g>
        <path d="M132.44,367.53c-.37,0-.69-.29-.71-.67-.11-1.59-.23-3.32-.35-5.12-.35-5.01-.75-10.7-.97-14.95-.02-.39.28-.73.68-.75.39-.01.73.28.75.68.23,4.24.62,9.92.97,14.93.13,1.8.25,3.54.35,5.12.03.39-.27.73-.66.76-.02,0-.03,0-.05,0Z"/>
      </g>
      <g>
        <g>
          <path class="st2" d="M108.23,296.07l-2.16,18.08,10.01,4.47s-14.81,10.12-34.32-1.1l10.53-4.52,5.43-20.98,10.52,4.04Z"/>
          <path d="M100.31,323.48c-5.41,0-11.88-1.3-18.91-5.34-.23-.14-.37-.39-.36-.66.02-.27.18-.51.43-.61l10.21-4.38,5.34-20.64c.05-.2.18-.36.36-.46.18-.09.39-.1.58-.03l10.51,4.04c.31.12.49.43.45.75l-2.1,17.55,9.53,4.26c.24.11.4.33.42.59.02.26-.09.51-.31.65-.1.07-6.43,4.27-16.17,4.27ZM83.38,317.6c15.21,8.1,27.41,3.05,31.13,1.1l-8.73-3.9c-.29-.13-.46-.43-.42-.74l2.1-17.52-9.25-3.56-5.23,20.2c-.06.21-.21.39-.41.48l-9.19,3.94Z"/>
        </g>
        <g>
          <path class="st2" d="M97.47,297.09s-4.02,1.52-5.08-1.98c-1.06-3.51,2.4-3.29,2.4-3.29,0,0-3.69-7.69,2.05-8.44,5.73-.75,9.92-2.88,9.92-2.88,0,0,4.17,7.33,5.51,13.48.81,3.71.59,6.98-2.2,7.96-7.63,2.67-12.6-4.85-12.6-4.85Z"/>
          <path d="M106.84,303.23c-5.09,0-8.6-3.97-9.64-5.31-.78.2-2.27.44-3.56-.2-.93-.46-1.58-1.27-1.93-2.41-.39-1.3-.29-2.35.32-3.11.48-.61,1.16-.88,1.74-1-.56-1.49-1.41-4.45-.3-6.49.62-1.15,1.73-1.83,3.29-2.03,5.53-.72,9.65-2.79,9.69-2.81.34-.17.76-.05.95.28.17.3,4.24,7.5,5.58,13.68,1.05,4.84.16,7.8-2.66,8.79-1.22.43-2.38.61-3.47.61ZM97.47,296.37c.23,0,.46.12.6.32.19.29,4.77,7.03,11.77,4.57,2.03-.71,2.61-3.11,1.74-7.13-1.09-4.99-4.12-10.86-5.11-12.7-1.39.62-4.96,2.06-9.53,2.66-1.1.14-1.83.57-2.22,1.3-.96,1.77.2,5.02.73,6.12.11.23.09.5-.05.71-.14.21-.38.33-.64.31-.31-.02-1.21.05-1.61.56-.29.37-.32.98-.07,1.81.23.75.62,1.26,1.19,1.54,1.23.61,2.93,0,2.95-.01.08-.03.17-.05.25-.05Z"/>
        </g>
      </g>
    </g>
  </g>
</svg>